<svg xmlns="http://www.w3.org/2000/svg" viewBox="0 0 140 260" role="img" aria-label="Taiwan silhouette"><path d="M77 6C66 11 57 20 51 31 44 44 37 58 30 72c-7 15-14 29-18 44-5 18-6 37-2 55 3 16 10 31 20 42 10 12 23 23 36 33 7 5 14 10 21 8 8-2 13-11 17-19 8-15 17-30 22-46 7-21 7-44 3-65-4-22-12-43-19-64-5-15-10-32-20-44C87 9 82 6 77 6Z" fill="none" stroke="#e0c77f" stroke-width="3"/><path d="M75 15c-8 9-14 22-20 35-8 18-17 35-23 54-7 22-10 45-4 66 6 22 21 39 37 54 8 7 17 15 24 12 7-3 10-14 15-24 7-14 14-28 18-43 5-18 4-38 0-56-4-20-11-39-17-58-5-15-11-31-19-40-4-4-7-3-11 0Z" fill="#cdb06b" opacity=".16"/></svg>